<svg xmlns="http://www.w3.org/2000/svg" viewBox="0 0 1081 450.6"><defs><style>.cls-1{fill:#fff59f;stroke:#000;stroke-miterlimit:10;stroke-width:4px;}.cls-2{font-size:85.09px;fill:#fbb03b;font-family:TimesNewRomanPS-BoldMT, Times New Roman;font-weight:700;}.cls-3{letter-spacing:-0.04em;}.cls-4{letter-spacing:-0.02em;}.cls-5{fill:#a10000;}.cls-6{fill:#6c0000;}.cls-7{fill:#b90000;}.cls-8{fill:#fff;}</style></defs><g id="Javascript"><polygon class="cls-1" points="357.9 97.8 357.9 332.2 589.9 332.6 589.9 98.2 357.9 97.8"/></g><g id="C_Text" data-name="C Text"><text class="cls-2" transform="translate(250.3 70.7)">NEWPO<tspan class="cls-3" x="321.4" y="0">R</tspan><tspan class="cls-4" x="379.9" y="0">T</tspan></text><text class="cls-2" transform="translate(0 422.7)">PROGRAMMING CLUB</text><text x="-9.1" y="-0.8"/></g><g id="C_Icon" data-name="C++ Icon"><path class="cls-5" d="M568.8,265.8a16.6,16.6,0,0,0,2.2-7.6V174.1a16.5,16.5,0,0,0-2.2-7.5l-85.9,49.6Z" transform="translate(-9.1 -0.8)"/><path class="cls-6" d="M490.6,313.5l72.9-42a15.6,15.6,0,0,0,5.4-5.7L483,216.2l-85.9,49.6a15.6,15.6,0,0,0,5.4,5.7l72.9,42A16.3,16.3,0,0,0,490.6,313.5Z" transform="translate(-9.1 -0.8)"/><path class="cls-7" d="M569,166.6a15.6,15.6,0,0,0-5.4-5.7l-72.8-42.1a17.2,17.2,0,0,0-15.3,0l-72.9,42.1c-4.2,2.4-7.6,8.4-7.6,13.2v84.1a16.6,16.6,0,0,0,2.2,7.6l85.9-49.6Z" transform="translate(-9.1 -0.8)"/></g><g id="Java_Logo" data-name="Java Logo"><path class="cls-8" d="M463.8,248s-5.6,3.4,3.8,4.3c11.3,1.5,17.3,1.2,29.8-1.2a39.5,39.5,0,0,0,8,3.9c-28.2,12-63.8-.7-41.6-7ZM461,233.2s-6,4.6,3.4,5.6c12.2,1.2,21.8,1.4,38.4-2a14.2,14.2,0,0,0,5.8,3.6c-33.9,10.1-71.9,1-47.6-7.2ZM526.5,261s4.1,3.4-4.5,6c-16.1,4.8-67.6,6.3-82,0-5.1-2.1,4.5-5.3,7.6-5.8a25.4,25.4,0,0,1,4.8-.7c-5.5-3.8-36.7,8-15.8,11.3,57.4,9.4,104.8-4.1,89.9-10.8Zm-60.1-44.1s-26.2,6.2-9.4,8.4c7.2.9,21.4.7,34.6-.3,10.8-.9,21.7-2.8,21.7-2.8a47.1,47.1,0,0,0-6.5,3.3c-26.7,7-77.9,3.9-63.3-3.3,12.5-6.1,22.9-5.3,22.9-5.3ZM513.3,243c26.9-14,14.4-27.4,5.7-25.7a24.7,24.7,0,0,0-3.1.9,4.1,4.1,0,0,1,2.4-1.9c17.1-6,30.5,18-5.5,27.4l.5-.7ZM470,281.1c26,1.6,65.6-1,66.6-13.3,0,0-1.9,4.8-21.4,8.4-22.1,4.1-49.5,3.6-65.6,1,0,0,3.3,2.9,20.4,3.9Z" transform="translate(-9.1 -0.8)"/><polyline class="cls-8" points="459.9 179.2 466.9 179.2 466.9 192.2 480.9 192.2 480.9 199.2 466.9 199.2 466.9 213.2 459.9 213.2 459.9 199.2 445.9 199.2 445.9 192.2 459.9 192.2"/><polyline class="cls-8" points="485.9 151.2 490.9 151.2 490.9 161.2 501.9 161.2 501.9 166.2 490.9 166.2 490.9 177.2 485.9 177.2 485.9 166.2 474.9 166.2 474.9 161.2 485.9 161.2"/></g></svg>